<svg xmlns="http://www.w3.org/2000/svg" viewBox="0 0 24 24" width="24" height="24" color="#eac078" fill="none" stroke="currentColor" stroke-width="1.5" stroke-linecap="round" stroke-linejoin="round" role="img" aria-label="Faraday manual-wifi">
<circle cx="12" cy="2.6" r="1.4"/>
<path d="M4 21.5V12C4 1.5 20 1.5 20 12V21.5Z M4 18.5H20 M12 4.2C9 6 8.5 8 8.5 10.5 M12 4.2C15 6 15.5 8 15.5 10.5"/>
<path fill="currentColor" stroke="none" d="M7 17.3 9.7 12.5C10.5 9.8 14 10.2 14.6 12L16.5 12.8 14.5 13.5C14.2 16.8 11.6 17.8 9.5 16Z"/>
<path d="M11 16.5 11.5 18.5"/><path stroke-width="1.3" d="M18.9 5Q21 2.4 23.1 5 M20 5.8Q21 4.6 22 5.8"/><circle cx="21" cy="6.9" r=".45" fill="currentColor" stroke="none"/>
</svg>
